<svg width="48" height="48" viewBox="0 0 48 48" fill="none" xmlns="http://www.w3.org/2000/svg">
<path d="M6 16V40C6 41.1046 6.89543 42 8 42H40C41.1046 42 42 41.1046 42 40V16" stroke="#6366f1" stroke-width="2" stroke-linecap="round" stroke-linejoin="round"/>
<path d="M6 16L24 28L42 16" stroke="#6366f1" stroke-width="2" stroke-linecap="round" stroke-linejoin="round"/>
<path d="M6 16V12C6 10.8954 6.89543 10 8 10H16L20 6H28L32 10H40C41.1046 10 42 10.8954 42 12V16" stroke="#6366f1" stroke-width="2" stroke-linecap="round" stroke-linejoin="round"/>
<circle cx="24" cy="24" r="4" stroke="#6366f1" stroke-width="2"/>
<path d="M16 34L20 30L28 38L32 34L40 42H8L16 34Z" stroke="#6366f1" stroke-width="2" stroke-linecap="round" stroke-linejoin="round"/>
</svg>
